<svg xmlns="http://www.w3.org/2000/svg" viewBox="0 0 38.06 38.06"><defs><style>.cls-1{fill:#222221;}.cls-2{fill:#fff;}</style></defs><title>Asset 3</title><g id="Layer_2" data-name="Layer 2"><g id="Capa_1" data-name="Capa 1"><path class="cls-1" d="M19,38.06h0A19,19,0,0,1,0,19H0A19,19,0,0,1,19,0h0a19,19,0,0,1,19,19h0A19,19,0,0,1,19,38.06Z"/><path class="cls-2" d="M8.89,25.4a11.83,11.83,0,0,0,18.2-10.51,8.18,8.18,0,0,0,2.08-2.15,8.39,8.39,0,0,1-2.39.66,4.17,4.17,0,0,0,1.83-2.31,8.13,8.13,0,0,1-2.64,1,4.17,4.17,0,0,0-7.09,3.8,11.79,11.79,0,0,1-8.58-4.35,4.18,4.18,0,0,0,1.29,5.56,4.26,4.26,0,0,1-1.88-.52A4.16,4.16,0,0,0,13,20.72a4.22,4.22,0,0,1-1.88.07,4.18,4.18,0,0,0,3.89,2.89A8.37,8.37,0,0,1,8.89,25.4Z"/></g></g></svg>