<svg xmlns="http://www.w3.org/2000/svg" viewBox="0 0 38.06 38.06"><defs><style>.cls-1{fill:#222221;}.cls-2{fill:#fff;}</style></defs><title>Asset 1</title><g id="Layer_2" data-name="Layer 2"><g id="Capa_1" data-name="Capa 1"><path class="cls-1" d="M19,38.06h0A19,19,0,0,1,0,19H0A19,19,0,0,1,19,0h0a19,19,0,0,1,19,19h0A19,19,0,0,1,19,38.06Z"/><path class="cls-2" d="M19,10.48c2.79,0,3.12,0,4.22.06a5.38,5.38,0,0,1,1.93.36,3.12,3.12,0,0,1,1.2.78,3,3,0,0,1,.78,1.2,5.38,5.38,0,0,1,.36,1.93c.05,1.1.06,1.43.06,4.22s0,3.12-.06,4.22a5.38,5.38,0,0,1-.36,1.93,3.45,3.45,0,0,1-2,2,5.38,5.38,0,0,1-1.93.36c-1.1.05-1.43.06-4.22.06s-3.12,0-4.22-.06a5.38,5.38,0,0,1-1.93-.36,3,3,0,0,1-1.2-.78,3.12,3.12,0,0,1-.78-1.2,5.38,5.38,0,0,1-.36-1.93c0-1.1-.06-1.43-.06-4.22s0-3.12.06-4.22a5.38,5.38,0,0,1,.36-1.93,3.45,3.45,0,0,1,2-2,5.38,5.38,0,0,1,1.93-.36c1.1,0,1.43-.06,4.22-.06M19,8.6c-2.83,0-3.19,0-4.3.06a7.83,7.83,0,0,0-2.53.48A5.4,5.4,0,0,0,9.14,12.2a7.83,7.83,0,0,0-.48,2.53C8.61,15.84,8.6,16.2,8.6,19s0,3.19.06,4.3a8,8,0,0,0,.48,2.54,5.42,5.42,0,0,0,3.06,3.05,7.57,7.57,0,0,0,2.53.48c1.11.05,1.47.06,4.3.06s3.19,0,4.3-.06a7.69,7.69,0,0,0,2.54-.48,5.44,5.44,0,0,0,3.05-3.05,8,8,0,0,0,.48-2.54c.05-1.11.06-1.47.06-4.3s0-3.19-.06-4.3a7.83,7.83,0,0,0-.48-2.53,5.42,5.42,0,0,0-3.05-3.06,8,8,0,0,0-2.54-.48c-1.11-.05-1.47-.06-4.3-.06"/><path class="cls-2" d="M19,13.67A5.36,5.36,0,1,0,24.39,19,5.36,5.36,0,0,0,19,13.67m0,8.84A3.48,3.48,0,1,1,22.51,19,3.48,3.48,0,0,1,19,22.51"/><path class="cls-2" d="M25.85,13.46a1.25,1.25,0,1,1-1.25-1.25,1.25,1.25,0,0,1,1.25,1.25"/></g></g></svg>