<svg xmlns="http://www.w3.org/2000/svg" viewBox="0 0 46.54 46.54"><defs><style>.cls-1{fill:#fff;}</style></defs><title>Asset 2</title><g id="Layer_2" data-name="Layer 2"><g id="Layer_1-2" data-name="Layer 1"><path class="cls-1" d="M45.27,39.1,34.59,28.42a20.63,20.63,0,0,1-6.17,6.17L39.1,45.27a4.36,4.36,0,0,0,6.17-6.17Z"/><path class="cls-1" d="M34.91,17.46A17.46,17.46,0,1,0,17.45,34.91,17.46,17.46,0,0,0,34.91,17.46ZM17.45,30.55A13.1,13.1,0,1,1,30.54,17.46,13.11,13.11,0,0,1,17.45,30.55Z"/><path class="cls-1" d="M7.27,17.46h2.91a7.29,7.29,0,0,1,7.27-7.28V7.27A10.2,10.2,0,0,0,7.27,17.46Z"/></g></g></svg>